<?xml version="1.0" encoding="utf-8"?>
<!-- Generator: Adobe Illustrator 18.1.1, SVG Export Plug-In . SVG Version: 6.00 Build 0)  -->
<!DOCTYPE svg PUBLIC "-//W3C//DTD SVG 1.1//EN" "http://www.w3.org/Graphics/SVG/1.1/DTD/svg11.dtd">
<svg version="1.1" id="Ebene_3" xmlns="http://www.w3.org/2000/svg" xmlns:xlink="http://www.w3.org/1999/xlink" x="0px" y="0px"
	 width="425.2px" height="538.6px" viewBox="-84 151.3 425.2 538.6" enable-background="new -84 151.3 425.2 538.6"
	 xml:space="preserve">
<g>
	
		<linearGradient id="SVGID_1_" gradientUnits="userSpaceOnUse" x1="1.3" y1="430.18" x2="1.3" y2="366.08" gradientTransform="matrix(1 0 0 -1 0 840.4701)">
		<stop  offset="0" style="stop-color:#A5A5A5"/>
		<stop  offset="1" style="stop-color:#8C8C8C"/>
	</linearGradient>
	<path fill="url(#SVGID_1_)" d="M-7.4,410.3h-9v64.1h8.9c7.6,0,13-0.8,16.2-2.5s5.7-4.6,7.5-8.8c1.8-4.2,2.7-11,2.7-20.4
		c0-12.4-2-21-6.1-25.5C8.9,412.6,2.1,410.3-7.4,410.3z"/>
	
		<linearGradient id="SVGID_2_" gradientUnits="userSpaceOnUse" x1="126.8" y1="431.28" x2="126.8" y2="364.48" gradientTransform="matrix(1 0 0 -1 0 840.4701)">
		<stop  offset="0" style="stop-color:#A5A5A5"/>
		<stop  offset="1" style="stop-color:#8C8C8C"/>
	</linearGradient>
	<path fill="url(#SVGID_2_)" d="M126.5,409.2c-7.3,0-13.2,2.6-17.6,7.8c-4.4,5.2-6.6,13.7-6.6,25.7c0,11.9,2.2,20.4,6.6,25.5
		c4.4,5.2,10.4,7.8,18,7.8c7.8,0,13.8-2.5,18.1-7.6c4.3-5.1,6.4-14.2,6.4-27.3c0-11.1-2.2-19.1-6.7-24.2
		C140.1,411.8,134,409.2,126.5,409.2z"/>
	
		<linearGradient id="SVGID_3_" gradientUnits="userSpaceOnUse" x1="128.55" y1="689.1801" x2="128.55" y2="150.58" gradientTransform="matrix(1 0 0 -1 0 840.4701)">
		<stop  offset="0" style="stop-color:#D2D2D2"/>
		<stop  offset="1" style="stop-color:#666666"/>
	</linearGradient>
	<path fill="url(#SVGID_3_)" d="M206.2,286.3v-135H-21.6c-34.3,0-62.4,28.1-62.4,62.4v476.2h425.2V286.3L206.2,286.3L206.2,286.3z
		 M51.1,471.2c-2.9,6.9-6.8,12.7-11.9,17.4c-5.1,4.7-10.5,7.8-16.3,9.3c-8,2.1-15.2,3.2-21.6,3.2h-53.9V383.7H1.3
		c10.6,0,19.2,1.4,25.7,4.3s11.9,7,16.2,12.4s7.4,11.7,9.3,18.8c1.9,7.2,2.9,14.7,2.9,22.7C55.4,454.6,54,464.3,51.1,471.2z
		 M180.6,475.3c-4.6,8.8-11.3,15.6-20,20.5s-19.6,7.3-32.6,7.3c-13.2,0-24.2-2.1-32.9-6.3c-8.7-4.2-15.7-10.9-21.1-20
		c-5.4-9.1-8.1-20.6-8.1-34.3c0-19.2,5.3-34.1,16-44.8c10.7-10.7,25.5-16,44.6-16c19.5,0,34.6,5.2,45.2,15.7s15.9,25.2,15.9,44.1
		C187.5,455.3,185.2,466.5,180.6,475.3z M303,485c-4.6,6-10.3,10.5-17.1,13.5s-15.5,4.6-26,4.6c-12.8,0-23.2-1.9-31.3-5.6
		c-8.1-3.7-15.1-10.2-20.9-19.6c-5.9-9.3-8.8-21.3-8.8-35.9c0-19.4,5.2-34.3,15.5-44.8c10.3-10.4,24.9-15.6,43.8-15.6
		c14.8,0,26.4,3,34.9,9s14.7,15.2,18.9,27.5l-32,7.1c-1.1-3.6-2.3-6.2-3.5-7.8c-2-2.8-4.5-4.9-7.4-6.4s-6.2-2.2-9.8-2.2
		c-8.2,0-14.5,3.3-18.9,9.9c-3.3,4.9-5,12.6-5,23.1c0,13,2,21.9,5.9,26.8c4,4.8,9.5,7.2,16.7,7.2c6.9,0,12.2-1.9,15.7-5.8
		s6.1-9.6,7.7-17l31.8,9.6C310.9,471.6,307.5,479.1,303,485z"/>
	
		<linearGradient id="SVGID_4_" gradientUnits="userSpaceOnUse" x1="273.75" y1="689.1801" x2="273.75" y2="150.5973" gradientTransform="matrix(1 0 0 -1 0 840.4701)">
		<stop  offset="0" style="stop-color:#D2D2D2"/>
		<stop  offset="1" style="stop-color:#666666"/>
	</linearGradient>
	<polygon fill="url(#SVGID_4_)" points="341.2,273.7 219.2,151.3 206.2,151.3 341.2,286.3 	"/>
</g>
</svg>
