<?xml version="1.0" encoding="utf-8"?>
<!-- Generator: Adobe Illustrator 18.1.1, SVG Export Plug-In . SVG Version: 6.00 Build 0)  -->
<!DOCTYPE svg PUBLIC "-//W3C//DTD SVG 1.1//EN" "http://www.w3.org/Graphics/SVG/1.1/DTD/svg11.dtd">
<svg version="1.1" id="Ebene_3" xmlns="http://www.w3.org/2000/svg" xmlns:xlink="http://www.w3.org/1999/xlink" x="0px" y="0px"
	 width="425.2px" height="538.6px" viewBox="-84 151.3 425.2 538.6" enable-background="new -84 151.3 425.2 538.6"
	 xml:space="preserve">
<g>
	
		<linearGradient id="SVGID_1_" gradientUnits="userSpaceOnUse" x1="128.55" y1="689.1801" x2="128.55" y2="150.58" gradientTransform="matrix(1 0 0 -1 0 840.4701)">
		<stop  offset="0" style="stop-color:#D2D2D2"/>
		<stop  offset="1" style="stop-color:#666666"/>
	</linearGradient>
	<path fill="url(#SVGID_1_)" d="M206.2,286.3v-135H-21.6c-34.3,0-62.4,28.1-62.4,62.4v476.2h425.2V286.3L206.2,286.3L206.2,286.3z
		 M181.8,519c0,4.8-0.5,9.4-1.3,13.9l26.2,23.3l-33,37.2l-19-16.8c-6.7,5.5-14.3,9.8-22.6,12.7v29.2H82.4v-29.2
		c-8.3-2.9-15.9-7.2-22.6-12.7l-19,16.8l-33-37.2L34,532.9c-0.8-4.5-1.3-9.1-1.3-13.9c0-4.7,0.5-9.4,1.3-13.9L7.8,481.9l33-37.2
		l19,16.8c6.7-5.5,14.3-9.8,22.6-12.7v-29.2h49.7v29.2c8.3,2.9,15.9,7.2,22.6,12.7l19-16.8l33,37.2l-26.2,23.2
		C181.2,509.6,181.8,514.2,181.8,519z M239,420l-13.3-6.3c-2.9,4.2-6.4,7.8-10.6,10.8l4.7,16.3l-27.8,8.1l-4.7-16.3
		c-5.1-0.3-10.1-1.4-14.7-3.4l-7.9,12.5l-24.5-15.4l10.9-17.2c-1.2-2.4-2.2-4.9-3-7.6s-1.2-5.3-1.5-8l-18.4-8.7l12.3-26l13.3,6.3
		c2.9-4.2,6.4-7.8,10.6-10.8l-4.7-16.3l27.8-8.1l4.7,16.3c5.1,0.3,10.1,1.4,14.7,3.4l7.9-12.5l24.5,15.4l-10.9,17.2
		c1.2,2.4,2.2,4.9,3,7.6s1.3,5.4,1.6,7.9l18.4,8.7L239,420z"/>
	
		<linearGradient id="SVGID_2_" gradientUnits="userSpaceOnUse" x1="189.8179" y1="472.7298" x2="189.8179" y2="429.3303" gradientTransform="matrix(1 0 0 -1 0 840.4701)">
		<stop  offset="0" style="stop-color:#B4B4B4"/>
		<stop  offset="1" style="stop-color:#9B9B9B"/>
	</linearGradient>
	<path fill="url(#SVGID_2_)" d="M183.8,368.6c-11.5,3.4-18.1,15.4-14.8,26.9c3.4,11.5,15.4,18.1,26.9,14.8
		c11.5-3.4,18.2-15.4,14.8-26.9C207.2,371.9,195.2,365.3,183.8,368.6z"/>
	
		<linearGradient id="SVGID_3_" gradientUnits="userSpaceOnUse" x1="107.15" y1="358.78" x2="107.15" y2="284.18" gradientTransform="matrix(1 0 0 -1 0 840.4701)">
		<stop  offset="0" style="stop-color:#9B9B9B"/>
		<stop  offset="1" style="stop-color:#828282"/>
	</linearGradient>
	<circle fill="url(#SVGID_3_)" cx="107.1" cy="519" r="37.3"/>
	
		<linearGradient id="SVGID_4_" gradientUnits="userSpaceOnUse" x1="273.75" y1="689.1801" x2="273.75" y2="150.5973" gradientTransform="matrix(1 0 0 -1 0 840.4701)">
		<stop  offset="0" style="stop-color:#D2D2D2"/>
		<stop  offset="1" style="stop-color:#666666"/>
	</linearGradient>
	<polygon fill="url(#SVGID_4_)" points="341.2,273.7 219.2,151.3 206.2,151.3 341.2,286.3 	"/>
</g>
</svg>
