<?xml version="1.0" encoding="utf-8"?>
<!-- Generator: Adobe Illustrator 18.1.1, SVG Export Plug-In . SVG Version: 6.00 Build 0)  -->
<!DOCTYPE svg PUBLIC "-//W3C//DTD SVG 1.1//EN" "http://www.w3.org/Graphics/SVG/1.1/DTD/svg11.dtd">
<svg version="1.1" id="Ebene_4" xmlns="http://www.w3.org/2000/svg" xmlns:xlink="http://www.w3.org/1999/xlink" x="0px" y="0px"
	 width="425.2px" height="538.6px" viewBox="88.3 154.5 425.2 538.6" enable-background="new 88.3 154.5 425.2 538.6"
	 xml:space="preserve">
<g>
	<linearGradient id="SVGID_1_" gradientUnits="userSpaceOnUse" x1="445.9507" y1="154.5026" x2="445.9507" y2="693.0853">
		<stop  offset="0" style="stop-color:#D2D2D2"/>
		<stop  offset="1" style="stop-color:#666666"/>
	</linearGradient>
	<polygon fill="url(#SVGID_1_)" points="513.5,276.9 391.5,154.5 378.5,154.5 513.5,289.5 	"/>
	<linearGradient id="SVGID_2_" gradientUnits="userSpaceOnUse" x1="181.3691" y1="412.3822" x2="181.3691" y2="479.1674">
		<stop  offset="0" style="stop-color:#A5A5A5"/>
		<stop  offset="1" style="stop-color:#8C8C8C"/>
	</linearGradient>
	<path fill="url(#SVGID_2_)" d="M181.1,412.4c-7.3,0-13.2,2.6-17.6,7.8c-4.4,5.2-6.6,13.7-6.6,25.7c0,11.9,2.2,20.4,6.6,25.5
		c4.4,5.2,10.4,7.8,18,7.8c7.8,0,13.8-2.5,18.1-7.6c4.3-5.1,6.4-14.2,6.4-27.3c0-11.1-2.2-19.1-6.7-24.2
		C194.8,414.9,188.7,412.4,181.1,412.4z"/>
	<linearGradient id="SVGID_3_" gradientUnits="userSpaceOnUse" x1="312.1406" y1="413.5033" x2="312.1406" y2="477.6459">
		<stop  offset="0" style="stop-color:#A5A5A5"/>
		<stop  offset="1" style="stop-color:#8C8C8C"/>
	</linearGradient>
	<path fill="url(#SVGID_3_)" d="M303.5,413.5h-9v64.1h8.9c7.6,0,13-0.8,16.2-2.5s5.7-4.6,7.5-8.8c1.8-4.2,2.7-11,2.7-20.4
		c0-12.4-2-21-6.1-25.5C319.7,415.8,312.9,413.5,303.5,413.5z"/>
	<linearGradient id="SVGID_4_" gradientUnits="userSpaceOnUse" x1="300.8523" y1="154.5037" x2="300.8523" y2="693.0864">
		<stop  offset="0" style="stop-color:#D2D2D2"/>
		<stop  offset="1" style="stop-color:#666666"/>
	</linearGradient>
	<path fill="url(#SVGID_4_)" d="M378.5,289.5v-135H150.6c-34.3,0-62.4,28.1-62.4,62.4l0,476.2h425.2l0-403.6H378.5z M235.3,478.5
		c-4.6,8.8-11.3,15.6-20,20.5s-19.6,7.3-32.6,7.3c-13.2,0-24.2-2.1-32.9-6.3c-8.7-4.2-15.7-10.9-21.1-20c-5.4-9.1-8.1-20.6-8.1-34.3
		c0-19.2,5.3-34.1,16-44.8c10.7-10.7,25.5-16,44.6-16c19.5,0,34.6,5.2,45.2,15.7s15.9,25.2,15.9,44.1
		C242.2,458.5,239.9,469.7,235.3,478.5z M361.9,474.4c-2.9,6.9-6.8,12.7-11.9,17.4c-5.1,4.7-10.5,7.8-16.3,9.3
		c-8,2.1-15.2,3.2-21.6,3.2h-53.9V386.9h53.9c10.6,0,19.2,1.4,25.7,4.3c6.5,2.9,11.9,7,16.2,12.4c4.3,5.4,7.4,11.7,9.3,18.8
		c1.9,7.2,2.9,14.7,2.9,22.7C366.2,457.8,364.8,467.5,361.9,474.4z M471.1,450.8c-7.1,6.7-18,10-32.6,10h-19.9v43.6h-36.4V386.9
		h60.3c13.1,0,23,3.1,29.5,9.4c6.5,6.2,9.8,15.1,9.8,26.7C481.8,434.8,478.2,444.1,471.1,450.8z"/>
	<linearGradient id="SVGID_5_" gradientUnits="userSpaceOnUse" x1="432.5537" y1="410.8085" x2="432.5537" y2="436.9945">
		<stop  offset="0" style="stop-color:#AAAAAA"/>
		<stop  offset="1" style="stop-color:#9B9B9B"/>
	</linearGradient>
	<path fill="url(#SVGID_5_)" d="M429,410.8h-10.3V437h8.9c7,0,11.9-1.2,14.7-3.6c2.8-2.4,4.2-5.5,4.2-9.3c0-3.7-1.2-6.8-3.7-9.4
		C440.3,412.1,435.7,410.8,429,410.8z"/>
</g>
</svg>
