<?xml version="1.0" encoding="utf-8"?>
<!-- Generator: Adobe Illustrator 18.1.1, SVG Export Plug-In . SVG Version: 6.00 Build 0)  -->
<!DOCTYPE svg PUBLIC "-//W3C//DTD SVG 1.1//EN" "http://www.w3.org/Graphics/SVG/1.1/DTD/svg11.dtd">
<svg version="1.1" id="Ebene_4" xmlns="http://www.w3.org/2000/svg" xmlns:xlink="http://www.w3.org/1999/xlink" x="0px" y="0px"
	 width="425.2px" height="538.6px" viewBox="-84 151.3 425.2 538.6" enable-background="new -84 151.3 425.2 538.6"
	 xml:space="preserve">
<g>
	
		<linearGradient id="SVGID_1_" gradientUnits="userSpaceOnUse" x1="273.75" y1="689.1801" x2="273.75" y2="150.5973" gradientTransform="matrix(1 0 0 -1 0 840.4701)">
		<stop  offset="0" style="stop-color:#D2D2D2"/>
		<stop  offset="1" style="stop-color:#666666"/>
	</linearGradient>
	<polygon fill="url(#SVGID_1_)" points="341.2,273.7 219.2,151.3 206.2,151.3 341.2,286.3 	"/>
	
		<linearGradient id="SVGID_2_" gradientUnits="userSpaceOnUse" x1="9.2" y1="431.28" x2="9.2" y2="364.48" gradientTransform="matrix(1 0 0 -1 0 840.4701)">
		<stop  offset="0" style="stop-color:#A5A5A5"/>
		<stop  offset="1" style="stop-color:#8C8C8C"/>
	</linearGradient>
	<path fill="url(#SVGID_2_)" d="M8.9,409.2c-7.3,0-13.2,2.6-17.6,7.8c-4.4,5.2-6.6,13.7-6.6,25.7c0,11.9,2.2,20.4,6.6,25.5
		c4.4,5.2,10.4,7.8,18,7.8c7.8,0,13.8-2.5,18.1-7.6s6.4-14.2,6.4-27.3c0-11.1-2.2-19.1-6.7-24.2C22.6,411.7,16.5,409.2,8.9,409.2z"
		/>
	
		<linearGradient id="SVGID_3_" gradientUnits="userSpaceOnUse" x1="139.9" y1="430.18" x2="139.9" y2="366.08" gradientTransform="matrix(1 0 0 -1 0 840.4701)">
		<stop  offset="0" style="stop-color:#A5A5A5"/>
		<stop  offset="1" style="stop-color:#8C8C8C"/>
	</linearGradient>
	<path fill="url(#SVGID_3_)" d="M131.2,410.3h-9v64.1h8.9c7.6,0,13-0.8,16.2-2.5s5.7-4.6,7.5-8.8c1.8-4.2,2.7-11,2.7-20.4
		c0-12.4-2-21-6.1-25.5C147.5,412.6,140.6,410.3,131.2,410.3z"/>
	
		<linearGradient id="SVGID_4_" gradientUnits="userSpaceOnUse" x1="128.55" y1="689.1801" x2="128.55" y2="150.58" gradientTransform="matrix(1 0 0 -1 0 840.4701)">
		<stop  offset="0" style="stop-color:#D2D2D2"/>
		<stop  offset="1" style="stop-color:#666666"/>
	</linearGradient>
	<path fill="url(#SVGID_4_)" d="M206.2,286.3v-135H-21.6c-34.3,0-62.4,28.1-62.4,62.4v476.2h425.2V286.3L206.2,286.3L206.2,286.3z
		 M63.1,475.3c-4.6,8.8-11.3,15.6-20,20.5s-19.6,7.3-32.6,7.3c-13.2,0-24.2-2.1-32.9-6.3c-8.7-4.2-15.7-10.9-21.1-20
		c-5.4-9.1-8.1-20.6-8.1-34.3c0-19.2,5.3-34.1,16-44.8c10.7-10.7,25.5-16,44.6-16c19.5,0,34.6,5.2,45.2,15.7s15.9,25.2,15.9,44.1
		C69.9,455.3,67.6,466.5,63.1,475.3z M189.6,471.2c-2.9,6.9-6.8,12.7-11.9,17.4c-5.1,4.7-10.5,7.8-16.3,9.3
		c-8,2.1-15.2,3.2-21.6,3.2H86V383.7h53.9c10.6,0,19.2,1.4,25.7,4.3s11.9,7,16.2,12.4c4.3,5.4,7.4,11.7,9.3,18.8
		c1.9,7.2,2.9,14.7,2.9,22.7C194,454.6,192.5,464.3,189.6,471.2z M304.9,483.8c-4.2,6.4-10,11.2-17.5,14.5s-16.9,4.9-28.3,4.9
		c-20,0-33.8-3.8-41.5-11.5s-12-17.5-13.1-29.3l34.5-2.2c0.7,5.6,2.3,9.9,4.6,12.8c3.7,4.8,9.1,7.1,16,7.1c5.2,0,9.2-1.2,12-3.6
		s4.2-5.2,4.2-8.4c0-3-1.3-5.8-4-8.2c-2.7-2.4-8.9-4.7-18.6-6.8c-15.9-3.6-27.3-8.3-34-14.3c-6.8-5.9-10.2-13.5-10.2-22.7
		c0-6,1.7-11.7,5.2-17.1s8.8-9.6,15.8-12.7s16.6-4.6,28.9-4.6c15,0,26.4,2.8,34.3,8.4s12.6,14.5,14.1,26.6l-34.2,2
		c-0.9-5.3-2.8-9.1-5.7-11.5c-2.9-2.4-6.9-3.6-12.1-3.6c-4.2,0-7.4,0.9-9.5,2.7c-2.1,1.8-3.2,4-3.2,6.5c0,1.9,0.9,3.6,2.6,5
		c1.7,1.5,5.8,3,12.2,4.3c15.9,3.4,27.2,6.9,34.1,10.4s11.9,7.8,15,13s4.7,11,4.7,17.4C311.1,470.5,309,477.4,304.9,483.8z"/>
</g>
</svg>
