<?xml version="1.0" encoding="utf-8"?>
<!-- Generator: Adobe Illustrator 18.1.1, SVG Export Plug-In . SVG Version: 6.00 Build 0)  -->
<!DOCTYPE svg PUBLIC "-//W3C//DTD SVG 1.1//EN" "http://www.w3.org/Graphics/SVG/1.1/DTD/svg11.dtd">
<svg version="1.1" id="Ebene_3" xmlns="http://www.w3.org/2000/svg" xmlns:xlink="http://www.w3.org/1999/xlink" x="0px" y="0px"
	 width="425.2px" height="538.6px" viewBox="-84 151.3 425.2 538.6" enable-background="new -84 151.3 425.2 538.6"
	 xml:space="preserve">
<g>
	
		<linearGradient id="SVGID_1_" gradientUnits="userSpaceOnUse" x1="18.8" y1="433.0395" x2="18.8" y2="409.1722" gradientTransform="matrix(1 0 0 -1 0 840.4701)">
		<stop  offset="0" style="stop-color:#A5A5A5"/>
		<stop  offset="1" style="stop-color:#969696"/>
	</linearGradient>
	<path fill="url(#SVGID_1_)" d="M31.6,410.5c-2.4-2-6.9-3-13.5-3H2.3v23.9h15.3c1.8,0,4.9,0.1,9-1.2c2.3-0.7,4.9-2.1,6.5-4.1
		c1.5-2,2.3-4.2,2.3-6.8C35.3,415.4,34.1,412.5,31.6,410.5z"/>
	
		<linearGradient id="SVGID_2_" gradientUnits="userSpaceOnUse" x1="128.55" y1="689.1801" x2="128.55" y2="150.58" gradientTransform="matrix(1 0 0 -1 0 840.4701)">
		<stop  offset="0" style="stop-color:#D2D2D2"/>
		<stop  offset="1" style="stop-color:#666666"/>
	</linearGradient>
	<path fill="url(#SVGID_2_)" d="M206.2,286.3v-135H-21.6c-34.3,0-62.4,28.1-62.4,62.4v476.2h425.2V286.3L206.2,286.3L206.2,286.3z
		 M40.1,501.1l-19.4-35.8c-2.5-4.6-4.6-7.7-6.6-9c-2.6-1.8-5.6-2.7-8.9-2.7H2.1v47.6h-36.3V383.7h60.5c11.2,0,19.8,1,25.7,2.9
		s10.7,5.5,14.3,10.7c3.6,5.2,5.4,11.5,5.4,19c0,6.5-1.4,12.1-4.2,16.9s-6.6,8.6-11.5,11.5c-3.1,1.9-7.3,3.4-12.7,4.6
		c4.3,1.4,7.5,2.9,9.4,4.3c1.3,1,3.3,3,5.8,6.2s4.2,5.6,5.1,7.3l17.6,34H40.1z M193.4,412.7h-37v88.4h-36.3v-88.4h-37v-29h110.3
		L193.4,412.7L193.4,412.7z M297,409h-53.2v20.5h45.5v23.7h-45.5v48h-36.4V383.7H297L297,409L297,409z"/>
	
		<linearGradient id="SVGID_3_" gradientUnits="userSpaceOnUse" x1="273.75" y1="689.1801" x2="273.75" y2="150.5973" gradientTransform="matrix(1 0 0 -1 0 840.4701)">
		<stop  offset="0" style="stop-color:#D2D2D2"/>
		<stop  offset="1" style="stop-color:#666666"/>
	</linearGradient>
	<polygon fill="url(#SVGID_3_)" points="341.2,273.7 219.2,151.3 206.2,151.3 341.2,286.3 	"/>
</g>
</svg>
