<?xml version="1.0" encoding="utf-8"?>
<!-- Generator: Adobe Illustrator 18.1.1, SVG Export Plug-In . SVG Version: 6.00 Build 0)  -->
<!DOCTYPE svg PUBLIC "-//W3C//DTD SVG 1.1//EN" "http://www.w3.org/Graphics/SVG/1.1/DTD/svg11.dtd">
<svg version="1.1" id="Ebene_3" xmlns="http://www.w3.org/2000/svg" xmlns:xlink="http://www.w3.org/1999/xlink" x="0px" y="0px"
	 width="425.2px" height="538.6px" viewBox="-84 151.3 425.2 538.6" enable-background="new -84 151.3 425.2 538.6"
	 xml:space="preserve">
<g>
	
		<linearGradient id="SVGID_1_" gradientUnits="userSpaceOnUse" x1="128.55" y1="689.1801" x2="128.55" y2="150.58" gradientTransform="matrix(1 0 0 -1 0 840.4701)">
		<stop  offset="0" style="stop-color:#D2D2D2"/>
		<stop  offset="0.995" style="stop-color:#666666"/>
	</linearGradient>
	<path fill="url(#SVGID_1_)" d="M206.2,286.3v-135H-21.6c-34.3,0-62.4,28.1-62.4,62.4v476.2h425.2V286.3L206.2,286.3L206.2,286.3z
		 M37,501.1l-23.2-37.7l-23.2,37.7h-40.5l40.5-61.2l-36.8-56.2h40l20.8,36.1l20.2-36.1h39.6l-36.6,56.9l40,60.5H37z M182.2,501.1
		H89.4V383.7h36.3v88.5h56.6V501.1z M292.6,483.8c-4.2,6.4-10,11.2-17.5,14.5s-16.9,4.9-28.3,4.9c-20,0-33.8-3.8-41.5-11.5
		s-12-17.5-13.1-29.3l34.5-2.2c0.7,5.6,2.3,9.9,4.6,12.8c3.7,4.8,9.1,7.1,16,7.1c5.2,0,9.2-1.2,12-3.6s4.2-5.2,4.2-8.4
		c0-3-1.3-5.8-4-8.2c-2.7-2.4-8.9-4.7-18.6-6.8c-15.9-3.6-27.3-8.3-34-14.3c-6.8-5.9-10.2-13.5-10.2-22.7c0-6,1.7-11.7,5.2-17.1
		s8.8-9.6,15.8-12.7s16.6-4.6,28.9-4.6c15,0,26.4,2.8,34.3,8.4s12.6,14.5,14.1,26.6l-34.2,2c-0.9-5.3-2.8-9.1-5.7-11.5
		c-2.9-2.4-6.9-3.6-12.1-3.6c-4.2,0-7.4,0.9-9.5,2.7c-2.1,1.8-3.2,4-3.2,6.5c0,1.9,0.9,3.6,2.6,5c1.7,1.5,5.8,3,12.2,4.3
		c15.9,3.4,27.2,6.9,34.1,10.4s11.9,7.8,15,13s4.7,11,4.7,17.4C298.9,470.5,296.9,477.4,292.6,483.8z"/>
	
		<linearGradient id="SVGID_2_" gradientUnits="userSpaceOnUse" x1="273.75" y1="689.1801" x2="273.75" y2="150.5973" gradientTransform="matrix(1 0 0 -1 0 840.4701)">
		<stop  offset="0" style="stop-color:#D2D2D2"/>
		<stop  offset="1" style="stop-color:#666666"/>
	</linearGradient>
	<polygon fill="url(#SVGID_2_)" points="341.2,273.7 219.2,151.3 206.2,151.3 341.2,286.3 	"/>
</g>
</svg>
